<svg width="165" height="20" viewBox="0 0 165 20" fill="none" xmlns="http://www.w3.org/2000/svg">
<path d="M8.514 12.188H14.078L11.27 5.376L8.514 12.188ZM7.344 15.308L5.758 19H0.766L8.93 0.799999H13.636L21.8 19H16.808L15.222 15.308H7.344ZM37.713 15.308V19H22.971V0.799999H27.755V15.308H37.713ZM49.8459 11.304V15.62H54.9419C56.1379 15.62 56.8659 15.49 57.1259 15.23C57.7325 14.8313 58.0359 14.242 58.0359 13.462C58.0359 12.63 57.7325 12.0407 57.1259 11.694C56.6579 11.434 55.9039 11.304 54.8639 11.304H49.8459ZM49.8459 4.18V8.028H54.1359C55.4185 8.028 56.2765 7.846 56.7099 7.482C57.1085 7.15267 57.3079 6.66733 57.3079 6.026C57.3079 5.41933 57.0652 4.934 56.5799 4.57C56.2159 4.31 55.4879 4.18 54.3959 4.18H49.8459ZM45.0619 0.799999H55.5659C57.9059 0.799999 59.5352 1.112 60.4539 1.736C61.6325 2.55067 62.2219 3.77267 62.2219 5.402C62.2219 6.61533 61.8579 7.56867 61.1299 8.262C60.8352 8.522 60.4885 8.74733 60.0899 8.938C59.6912 9.12867 59.3705 9.25 59.1279 9.302C58.8852 9.354 58.7205 9.38 58.6339 9.38V9.484C60.1072 9.62267 61.2512 10.0993 62.0659 10.914C62.8112 11.6593 63.1839 12.6907 63.1839 14.008C63.1839 15.5507 62.7332 16.738 61.8319 17.57C60.7919 18.5233 58.7639 19 55.7479 19H45.0619V0.799999ZM83.8082 0.799999V11.85C83.8082 14.2767 83.1928 16.1053 81.9622 17.336C81.0782 18.22 80.0468 18.792 78.8682 19.052C77.7068 19.3293 76.3375 19.468 74.7602 19.468C73.1828 19.468 71.8048 19.3293 70.6262 19.052C69.4648 18.792 68.4422 18.22 67.5582 17.336C66.3275 16.1053 65.7122 14.2767 65.7122 11.85V0.799999H70.4962V11.356C70.4962 12.916 70.8342 14.034 71.5102 14.71C72.1342 15.386 73.2175 15.724 74.7602 15.724C76.2508 15.724 77.3342 15.386 78.0102 14.71C78.6862 14.034 79.0242 12.916 79.0242 11.356V0.799999H83.8082ZM91.843 4.44V8.886H96.913C98.109 8.886 98.9497 8.64333 99.435 8.158C99.8337 7.75933 100.033 7.23933 100.033 6.598C100.033 5.818 99.7383 5.22867 99.149 4.83C98.733 4.57 97.9703 4.44 96.861 4.44H91.843ZM87.059 19V0.799999H97.823C100.666 0.799999 102.633 1.346 103.725 2.438C104.557 3.27 104.973 4.42267 104.973 5.896C104.973 7.248 104.574 8.32267 103.777 9.12C103.17 9.72667 102.39 10.1513 101.437 10.394V10.498C102.338 10.654 103.049 11.018 103.569 11.59C103.673 11.694 103.768 11.8067 103.855 11.928C103.942 12.0493 104.011 12.162 104.063 12.266C104.115 12.37 104.158 12.4913 104.193 12.63C104.245 12.7687 104.28 12.8813 104.297 12.968C104.332 13.0373 104.358 13.15 104.375 13.306C104.41 13.462 104.427 13.5747 104.427 13.644C104.427 13.7133 104.436 13.8347 104.453 14.008C104.47 14.1813 104.479 14.294 104.479 14.346L104.609 16.4C104.696 17.4747 104.947 18.3413 105.363 19H100.293C100.102 18.74 99.955 18.48 99.851 18.22C99.7643 17.9427 99.7037 17.726 99.669 17.57C99.6517 17.3967 99.6257 17.102 99.591 16.686L99.513 15.178C99.4437 14.138 99.1577 13.4013 98.655 12.968C98.1523 12.5347 97.3723 12.318 96.315 12.318H91.843V19H87.059ZM112.676 8.028H122.66V11.46H112.676V15.36H124.766V19H107.892V0.799999H124.48V4.44H112.676V8.028ZM132.386 12.188H137.95L135.142 5.376L132.386 12.188ZM131.216 15.308L129.63 19H124.638L132.802 0.799999H137.508L145.672 19H140.68L139.094 15.308H131.216ZM164.705 0.799999V11.85C164.705 14.2767 164.089 16.1053 162.859 17.336C161.975 18.22 160.943 18.792 159.765 19.052C158.603 19.3293 157.234 19.468 155.657 19.468C154.079 19.468 152.701 19.3293 151.523 19.052C150.361 18.792 149.339 18.22 148.455 17.336C147.224 16.1053 146.609 14.2767 146.609 11.85V0.799999H151.393V11.356C151.393 12.916 151.731 14.034 152.407 14.71C153.031 15.386 154.114 15.724 155.657 15.724C157.147 15.724 158.231 15.386 158.907 14.71C159.583 14.034 159.921 12.916 159.921 11.356V0.799999H164.705Z" fill="white"/>
</svg>
