<svg width="117" height="90" viewBox="0 0 117 90" fill="none" xmlns="http://www.w3.org/2000/svg">
<path d="M49.8119 46.881V90H0V55.2733C0 33.4727 4.92327 18.5209 14.7698 10.418C22.8787 3.47267 34.2698 0 48.9431 0H49.8119V20.836H48.9431C40.0619 20.836 33.6906 22.7653 29.8292 26.6238C25.7747 30.6752 23.7475 37.0418 23.7475 45.7235V46.881H49.8119ZM117 46.881V90H67.1881V55.2733C67.1881 33.4727 72.1114 18.5209 81.9579 10.418C90.0668 3.47267 101.458 0 116.131 0H117V20.836H116.131C107.25 20.836 100.879 22.7653 97.0173 26.6238C92.9629 30.6752 90.9356 37.0418 90.9356 45.7235V46.881H117Z" fill="white" fill-opacity="0.1"/>
</svg>
