<svg width="28" height="28" viewBox="0 0 28 28" fill="none" xmlns="http://www.w3.org/2000/svg">
<g clip-path="url(#clip0)">
<path d="M27.7504 20.2617C27.6752 20.1357 27.2096 19.1241 24.9695 17.0449C22.6243 14.8678 22.9393 15.2213 25.764 11.4568C27.4844 9.1641 28.1722 7.76399 27.9569 7.16545C27.7522 6.5949 26.4868 6.74542 26.4868 6.74542L22.2795 6.76992C22.2795 6.76992 21.968 6.72791 21.7352 6.86617C21.5095 7.00268 21.3642 7.31771 21.3642 7.31771C21.3642 7.31771 20.6974 9.09234 19.8083 10.601C17.934 13.7844 17.1832 13.9525 16.8769 13.7547C16.1646 13.2944 16.3431 11.903 16.3431 10.916C16.3431 7.8305 16.8104 6.54415 15.4313 6.21163C14.9727 6.10137 14.6367 6.02786 13.4659 6.01561C11.9643 5.99986 10.6919 6.02086 9.97262 6.37264C9.49309 6.60716 9.12381 7.13044 9.34958 7.1602C9.62785 7.19695 10.2579 7.32996 10.5922 7.78499C11.0244 8.37129 11.0087 9.69088 11.0087 9.69088C11.0087 9.69088 11.2572 13.3224 10.4294 13.7739C9.86061 14.0837 9.08181 13.4519 7.41043 10.5624C6.55462 9.08359 5.90707 7.44722 5.90707 7.44722C5.90707 7.44722 5.78281 7.1427 5.56055 6.97993C5.29103 6.78217 4.913 6.71916 4.913 6.71916L0.912208 6.74367C0.912208 6.74367 0.311914 6.76117 0.0913974 7.02194C-0.104617 7.2547 0.0756462 7.73424 0.0756462 7.73424C0.0756462 7.73424 3.20838 15.062 6.75414 18.7566C10.0076 22.1431 13.7004 21.9208 13.7004 21.9208H15.3735C15.3735 21.9208 15.8793 21.8648 16.1366 21.5865C16.3746 21.331 16.3658 20.8515 16.3658 20.8515C16.3658 20.8515 16.3326 18.606 17.3757 18.2753C18.403 17.9497 19.7226 20.4454 21.1209 21.4063C22.178 22.1326 22.9813 21.9733 22.9813 21.9733L26.7213 21.9208C26.7213 21.9208 28.678 21.8 27.7504 20.2617Z" fill="white"/>
</g>
<defs>
<clipPath id="clip0">
<rect width="28" height="28" fill="white"/>
</clipPath>
</defs>
</svg>
